<svg height="512" viewBox="0 0 54 60" width="512" xmlns="http://www.w3.org/2000/svg"><g id="Page-1" fill="none" fill-rule="evenodd"><g id="014---Wallet" fill="rgb(0,0,0)" fill-rule="nonzero"><path id="Shape" d="m8 25h-2c-.55228475 0-1 .4477153-1 1s.44771525 1 1 1h2c.55228475 0 1-.4477153 1-1s-.44771525-1-1-1z"/><path id="Shape" d="m14 25h-2c-.5522847 0-1 .4477153-1 1s.4477153 1 1 1h2c.5522847 0 1-.4477153 1-1s-.4477153-1-1-1z"/><path id="Shape" d="m20 25h-2c-.5522847 0-1 .4477153-1 1s.4477153 1 1 1h2c.5522847 0 1-.4477153 1-1s-.4477153-1-1-1z"/><path id="Shape" d="m26 25h-2c-.5522847 0-1 .4477153-1 1s.4477153 1 1 1h2c.5522847 0 1-.4477153 1-1s-.4477153-1-1-1z"/><path id="Shape" d="m30 27h2c.5522847 0 1-.4477153 1-1s-.4477153-1-1-1h-2c-.5522847 0-1 .4477153-1 1s.4477153 1 1 1z"/><path id="Shape" d="m36 27h2c.5522847 0 1-.4477153 1-1s-.4477153-1-1-1h-2c-.5522847 0-1 .4477153-1 1s.4477153 1 1 1z"/><path id="Shape" d="m8 54h-2c-.55228475 0-1 .4477153-1 1s.44771525 1 1 1h2c.55228475 0 1-.4477153 1-1s-.44771525-1-1-1z"/><path id="Shape" d="m14 54h-2c-.5522847 0-1 .4477153-1 1s.4477153 1 1 1h2c.5522847 0 1-.4477153 1-1s-.4477153-1-1-1z"/><path id="Shape" d="m20 54h-2c-.5522847 0-1 .4477153-1 1s.4477153 1 1 1h2c.5522847 0 1-.4477153 1-1s-.4477153-1-1-1z"/><path id="Shape" d="m26 54h-2c-.5522847 0-1 .4477153-1 1s.4477153 1 1 1h2c.5522847 0 1-.4477153 1-1s-.4477153-1-1-1z"/><path id="Shape" d="m32 54h-2c-.5522847 0-1 .4477153-1 1s.4477153 1 1 1h2c.5522847 0 1-.4477153 1-1s-.4477153-1-1-1z"/><path id="Shape" d="m38 54h-2c-.5522847 0-1 .4477153-1 1s.4477153 1 1 1h2c.5522847 0 1-.4477153 1-1s-.4477153-1-1-1z"/><circle id="Oval" cx="33" cy="40" r="1"/><path id="Shape" d="m42.539 6.073c-1.6199632-2.23276589-4.7382195-2.73967235-6.982-1.135l-2.128 1.533-11.358-5.908c-2.453724-1.27097952-5.4732134-.31474821-6.748 2.137l-9.51 18.3h-.813c-2.76005315.0033061-4.99669388 2.2399468-5 5v29c.00330612 2.7600532 2.23994685 4.9966939 5 5h41c2.7600532-.0033061 4.9966939-2.2399468 5-5v-26.673l.924-.666c2.2389633-1.6126972 2.7482633-4.7342856 1.138-6.975zm-17.3 14.927 16.844-12.134 2.341 3.247-12.337 8.887zm11.486-14.439c1.3474811-.9602379 3.2168771-.65647779 4.191.681l-19.099 13.758h-5.129l5.89-4.244.014-.01zm-13.808-3.3 3.555 1.847-5.295 10.192-7.224 5.2zm1.861 9.446 3.468-6.676 3.366 1.749zm-7.678-9.085c.7644828-1.46957404 2.5729927-2.04484648 4.046-1.287l-9.703 18.665h-3.377zm20.9 54.378h-33c-1.65685425 0-3-1.3431458-3-3v-29c0-1.6568542 1.34314575-3 3-3h34c1.6568542 0 3 1.3431458 3 3v9h-9c-2.7614237 0-5 2.2385763-5 5s2.2385763 5 5 5h9v10c0 1.6568542-1.3431458 3-3 3zm11-15h-5v-6h5zm-7 0h-9c-1.6568542 0-3-1.3431458-3-3s1.3431458-3 3-3h9zm4 15h-3.026c.6618067-.8603889 1.0223232-1.9145307 1.026-3v-10h5v10c0 1.6568542-1.3431458 3-3 3zm3-23h-5v-1.628l5-3.6zm1.757-8.963-6.757 4.87v-4.907c-.0033061-2.7600532-2.2399468-4.9966939-5-5h-3.491l10.084-7.264 5.846 8.118c.9649639 1.3438582.659851 3.215247-.682 4.183z"/></g></g></svg>