<svg height="503pt" viewBox="-30 0 503 503.85994" width="503pt" xmlns="http://www.w3.org/2000/svg"><path d="m.429688 285.378906c-.105469 95.703125 62.160156 180.304688 153.566406 208.664063s190.621094-6.148438 244.707031-85.105469c54.082031-78.957031 50.410156-183.9375-9.054687-258.925781l13.019531-13.019531c6.5625 6.539062 17.175781 6.535156 23.730469-.011719l11.882812-11.875c6.527344-6.566407 6.523438-17.171875-.007812-23.730469l-35.621094-35.621094c-6.566406-6.523437-17.167969-6.519531-23.730469.007813l-11.867187 11.878906c-6.546876 6.550781-6.550782 17.167969-.007813 23.726563l-13.019531 13.023437c-31.738282-25.238281-69.90625-41.085937-110.1875-45.746094v-18.285156h16.785156c9.269531-.011719 16.777344-7.519531 16.789062-16.785156v-16.789063c-.011718-9.265625-7.519531-16.7734372-16.789062-16.785156h-83.933594c-9.265625.0117188-16.773437 7.519531-16.785156 16.785156v16.789063c.011719 9.265625 7.519531 16.773437 16.785156 16.785156h16.789063v18.285156c-109.96875 12.898438-192.90625 106.011719-193.050781 216.734375zm218.230468 201.441406c-107.976562.003907-196.746094-85.132812-201.25-193.015624-4.503906-107.878907 76.863282-200.121094 184.460938-209.113282 5.542968-.460937 11.128906-.757812 16.789062-.757812s11.246094.292968 16.785156.757812c107.601563 8.992188 188.964844 101.234375 184.464844 209.113282-4.503906 107.882812-93.277344 193.019531-201.25 193.015624zm172.128906-409.1875 35.617188 35.613282-11.871094 11.875-35.613281-35.613282zm-11.875 35.605469 11.886719 11.882813-12.097656 12.097656c-3.8125-4.109375-7.773437-8.074219-11.886719-11.882812zm-202.222656-96.453125h83.933594l.019531 16.789063h-83.953125zm33.574219 33.574219h16.789063v17c-2.789063-.105469-5.582032-.210937-8.394532-.210937-2.816406 0-5.605468.105468-8.394531.210937zm0 0"/><path d="m349.234375 154.804688c-.128906-.128907-.296875-.167969-.429687-.285157-71.9375-71.730469-188.351563-71.730469-260.289063 0-.132813.117188-.300781.15625-.429687.285157-.125.125-.167969.292968-.285157.425781-71.730469 71.9375-71.730469 188.355469 0 260.292969.117188.132812.15625.300781.285157.425781.128906.128906.296874.167969.429687.285156 71.9375 71.730469 188.351563 71.730469 260.289063 0 .132812-.113281.300781-.15625.429687-.285156.125-.125.167969-.292969.285156-.425781 71.730469-71.9375 71.730469-188.355469 0-260.292969-.117187-.132813-.160156-.300781-.285156-.425781zm-18.144531 6.273437-17.472656 17.472656c-2.179688 2.105469-3.054688 5.226563-2.289063 8.160157.769531 2.9375 3.0625 5.226562 5.996094 5.996093 2.933593.769531 6.054687-.105469 8.164062-2.289062l17.46875-17.46875c26 28.632812 41.25 65.40625 43.144531 104.035156h-24.753906c-4.636718 0-8.394531 3.757813-8.394531 8.394531 0 4.632813 3.757813 8.390625 8.394531 8.390625h24.753906c-1.894531 38.628907-17.144531 75.402344-43.140624 104.035157l-17.472657-17.46875c-3.292969-3.179688-8.527343-3.136719-11.765625.101562-3.238281 3.238281-3.28125 8.472656-.101562 11.765625l17.46875 17.472656c-28.632813 26-65.40625 41.25-104.035156 43.144531v-24.753906c0-4.636718-3.757813-8.394531-8.394532-8.394531-4.636718 0-8.394531 3.757813-8.394531 8.394531v24.753906c-38.628906-1.894531-75.402344-17.144531-104.035156-43.140624l17.46875-17.472657c2.183593-2.105469 3.058593-5.226562 2.289062-8.164062-.765625-2.933594-3.058593-5.226563-5.992187-5.992188-2.9375-.769531-6.058594.105469-8.164063 2.289063l-17.472656 17.464844c-25.996094-28.632813-41.246094-65.40625-43.144531-104.035157h24.757812c4.632813 0 8.390625-3.757812 8.390625-8.390625 0-4.636718-3.757812-8.394531-8.390625-8.394531h-24.757812c1.898437-38.628906 17.144531-75.402344 43.144531-104.035156l17.46875 17.46875c2.109375 2.183593 5.230469 3.058593 8.164063 2.289062 2.933593-.769531 5.226562-3.058593 5.996093-5.996093.765625-2.933594-.109375-6.054688-2.289062-8.160157l-17.46875-17.472656c63.695312-58.09375 161.164062-58.09375 224.859375 0zm0 0"/><path d="m218.660156 318.949219c16.894532.035156 31.171875-12.511719 33.304688-29.273438 2.132812-16.757812-8.546875-32.484375-24.910156-36.679687v-110.308594c0-4.632812-3.757813-8.390625-8.394532-8.390625-4.636718 0-8.394531 3.757813-8.394531 8.390625v110.308594c-16.363281 4.195312-27.042969 19.921875-24.910156 36.679687 2.132812 16.761719 16.410156 29.308594 33.304687 29.273438zm0-50.359375c9.269532 0 16.785156 7.515625 16.785156 16.789062 0 9.269532-7.515624 16.785156-16.785156 16.785156-9.273437 0-16.789062-7.515624-16.789062-16.785156.015625-9.269531 7.523437-16.777344 16.789062-16.789062zm0 0"/></svg>